<svg id="visual" viewBox="0 0 960 540" width="960" height="540" xmlns="http://www.w3.org/2000/svg" xmlns:xlink="http://www.w3.org/1999/xlink" version="1.1"><rect x="0" y="0" width="960" height="540" fill="#002233"></rect><defs><linearGradient id="grad1_0" x1="43.8%" y1="0%" x2="100%" y2="100%"><stop offset="14.444444444444446%" stop-color="#bd0010" stop-opacity="1"></stop><stop offset="85.55555555555554%" stop-color="#bd0010" stop-opacity="1"></stop></linearGradient></defs><defs><linearGradient id="grad1_1" x1="43.8%" y1="0%" x2="100%" y2="100%"><stop offset="14.444444444444446%" stop-color="#bd0010" stop-opacity="1"></stop><stop offset="85.55555555555554%" stop-color="#ae003d" stop-opacity="1"></stop></linearGradient></defs><defs><linearGradient id="grad1_2" x1="43.8%" y1="0%" x2="100%" y2="100%"><stop offset="14.444444444444446%" stop-color="#8d005a" stop-opacity="1"></stop><stop offset="85.55555555555554%" stop-color="#ae003d" stop-opacity="1"></stop></linearGradient></defs><defs><linearGradient id="grad1_3" x1="43.8%" y1="0%" x2="100%" y2="100%"><stop offset="14.444444444444446%" stop-color="#8d005a" stop-opacity="1"></stop><stop offset="85.55555555555554%" stop-color="#612167" stop-opacity="1"></stop></linearGradient></defs><defs><linearGradient id="grad1_4" x1="43.8%" y1="0%" x2="100%" y2="100%"><stop offset="14.444444444444446%" stop-color="#312b62" stop-opacity="1"></stop><stop offset="85.55555555555554%" stop-color="#612167" stop-opacity="1"></stop></linearGradient></defs><defs><linearGradient id="grad1_5" x1="43.8%" y1="0%" x2="100%" y2="100%"><stop offset="14.444444444444446%" stop-color="#312b62" stop-opacity="1"></stop><stop offset="85.55555555555554%" stop-color="#03294e" stop-opacity="1"></stop></linearGradient></defs><defs><linearGradient id="grad1_6" x1="43.8%" y1="0%" x2="100%" y2="100%"><stop offset="14.444444444444446%" stop-color="#002233" stop-opacity="1"></stop><stop offset="85.55555555555554%" stop-color="#03294e" stop-opacity="1"></stop></linearGradient></defs><defs><linearGradient id="grad2_0" x1="0%" y1="0%" x2="56.3%" y2="100%"><stop offset="14.444444444444446%" stop-color="#bd0010" stop-opacity="1"></stop><stop offset="85.55555555555554%" stop-color="#bd0010" stop-opacity="1"></stop></linearGradient></defs><defs><linearGradient id="grad2_1" x1="0%" y1="0%" x2="56.3%" y2="100%"><stop offset="14.444444444444446%" stop-color="#ae003d" stop-opacity="1"></stop><stop offset="85.55555555555554%" stop-color="#bd0010" stop-opacity="1"></stop></linearGradient></defs><defs><linearGradient id="grad2_2" x1="0%" y1="0%" x2="56.3%" y2="100%"><stop offset="14.444444444444446%" stop-color="#ae003d" stop-opacity="1"></stop><stop offset="85.55555555555554%" stop-color="#8d005a" stop-opacity="1"></stop></linearGradient></defs><defs><linearGradient id="grad2_3" x1="0%" y1="0%" x2="56.3%" y2="100%"><stop offset="14.444444444444446%" stop-color="#612167" stop-opacity="1"></stop><stop offset="85.55555555555554%" stop-color="#8d005a" stop-opacity="1"></stop></linearGradient></defs><defs><linearGradient id="grad2_4" x1="0%" y1="0%" x2="56.3%" y2="100%"><stop offset="14.444444444444446%" stop-color="#612167" stop-opacity="1"></stop><stop offset="85.55555555555554%" stop-color="#312b62" stop-opacity="1"></stop></linearGradient></defs><defs><linearGradient id="grad2_5" x1="0%" y1="0%" x2="56.3%" y2="100%"><stop offset="14.444444444444446%" stop-color="#03294e" stop-opacity="1"></stop><stop offset="85.55555555555554%" stop-color="#312b62" stop-opacity="1"></stop></linearGradient></defs><defs><linearGradient id="grad2_6" x1="0%" y1="0%" x2="56.3%" y2="100%"><stop offset="14.444444444444446%" stop-color="#03294e" stop-opacity="1"></stop><stop offset="85.55555555555554%" stop-color="#002233" stop-opacity="1"></stop></linearGradient></defs><g transform="translate(960, 0)"><path d="M0 378C-35.3 369.4 -70.7 360.7 -115.6 355.7C-160.5 350.7 -214.9 349.3 -222.2 305.8C-229.5 262.3 -189.6 176.7 -186.9 135.8C-184.2 94.9 -218.7 98.6 -256.8 83.4C-294.8 68.3 -336.4 34.1 -378 0L0 0Z" fill="#002641"></path><path d="M0 324C-30.3 316.6 -60.6 309.2 -99.1 304.9C-137.5 300.6 -184.2 299.4 -190.4 262.1C-196.7 224.8 -162.5 151.5 -160.2 116.4C-157.9 81.3 -187.5 84.5 -220.1 71.5C-252.7 58.5 -288.4 29.3 -324 0L0 0Z" fill="#1a2b59"></path><path d="M0 270C-25.2 263.8 -50.5 257.6 -82.6 254.1C-114.6 250.5 -153.5 249.5 -158.7 218.4C-163.9 187.4 -135.4 126.2 -133.5 97C-131.6 67.8 -156.2 70.4 -183.4 59.6C-210.6 48.8 -240.3 24.4 -270 0L0 0Z" fill="#492867"></path><path d="M0 216C-20.2 211.1 -40.4 206.1 -66 203.3C-91.7 200.4 -122.8 199.6 -127 174.7C-131.1 149.9 -108.3 101 -106.8 77.6C-105.3 54.2 -125 56.4 -146.7 47.7C-168.5 39 -192.2 19.5 -216 0L0 0Z" fill="#781563"></path><path d="M0 162C-15.1 158.3 -30.3 154.6 -49.5 152.4C-68.8 150.3 -92.1 149.7 -95.2 131.1C-98.3 112.4 -81.2 75.7 -80.1 58.2C-78.9 40.7 -93.7 42.3 -110.1 35.8C-126.4 29.3 -144.2 14.6 -162 0L0 0Z" fill="#9f004e"></path><path d="M0 108C-10.1 105.5 -20.2 103.1 -33 101.6C-45.8 100.2 -61.4 99.8 -63.5 87.4C-65.6 74.9 -54.2 50.5 -53.4 38.8C-52.6 27.1 -62.5 28.2 -73.4 23.8C-84.2 19.5 -96.1 9.8 -108 0L0 0Z" fill="#b8002a"></path><path d="M0 54C-5 52.8 -10.1 51.5 -16.5 50.8C-22.9 50.1 -30.7 49.9 -31.7 43.7C-32.8 37.5 -27.1 25.2 -26.7 19.4C-26.3 13.6 -31.2 14.1 -36.7 11.9C-42.1 9.8 -48.1 4.9 -54 0L0 0Z" fill="#bd0010"></path></g><g transform="translate(0, 540)"><path d="M0 -378C43.5 -382.5 87 -386.9 116.8 -359.5C146.6 -332.1 162.7 -272.8 164.6 -226.5C166.5 -180.3 154.2 -147.1 182.8 -132.8C211.5 -118.6 281.2 -123.1 320.5 -104.1C359.9 -85.1 368.9 -42.6 378 0L0 0Z" fill="#002641"></path><path d="M0 -324C37.3 -327.8 74.6 -331.6 100.1 -308.1C125.7 -284.6 139.4 -233.8 141.1 -194.2C142.7 -154.5 132.1 -126.1 156.7 -113.9C181.3 -101.6 241 -105.5 274.7 -89.3C308.5 -73 316.2 -36.5 324 0L0 0Z" fill="#1a2b59"></path><path d="M0 -270C31.1 -273.2 62.2 -276.4 83.4 -256.8C104.7 -237.2 116.2 -194.8 117.6 -161.8C118.9 -128.8 110.1 -105.1 130.6 -94.9C151.1 -84.7 200.8 -88 228.9 -74.4C257 -60.8 263.5 -30.4 270 0L0 0Z" fill="#492867"></path><path d="M0 -216C24.9 -218.5 49.7 -221.1 66.7 -205.4C83.8 -189.8 93 -155.9 94 -129.4C95.1 -103 88.1 -84.1 104.5 -75.9C120.9 -67.7 160.7 -70.4 183.1 -59.5C205.6 -48.7 210.8 -24.3 216 0L0 0Z" fill="#781563"></path><path d="M0 -162C18.6 -163.9 37.3 -165.8 50.1 -154.1C62.8 -142.3 69.7 -116.9 70.5 -97.1C71.3 -77.3 66.1 -63.1 78.4 -56.9C90.6 -50.8 120.5 -52.8 137.4 -44.6C154.2 -36.5 158.1 -18.2 162 0L0 0Z" fill="#9f004e"></path><path d="M0 -108C12.4 -109.3 24.9 -110.5 33.4 -102.7C41.9 -94.9 46.5 -77.9 47 -64.7C47.6 -51.5 44 -42 52.2 -38C60.4 -33.9 80.3 -35.2 91.6 -29.8C102.8 -24.3 105.4 -12.2 108 0L0 0Z" fill="#b8002a"></path><path d="M0 -54C6.2 -54.6 12.4 -55.3 16.7 -51.4C20.9 -47.4 23.2 -39 23.5 -32.4C23.8 -25.8 22 -21 26.1 -19C30.2 -16.9 40.2 -17.6 45.8 -14.9C51.4 -12.2 52.7 -6.1 54 0L0 0Z" fill="#bd0010"></path></g></svg>